<svg width="15" height="16" viewBox="0 0 15 16" fill="none" xmlns="http://www.w3.org/2000/svg">
<rect width="14.3448" height="16" fill="white" fill-opacity="0.64"/>
<path d="M7.1724 2C4.20608 2 1.79309 4.69141 1.79309 8C1.79309 11.3086 4.20608 14 7.1724 14C10.1387 14 12.5517 11.3086 12.5517 8C12.5517 4.69141 10.1387 2 7.1724 2ZM7.1724 3C9.65368 3 11.6552 5.23242 11.6552 8C11.6552 10.7676 9.65368 13 7.1724 13C4.69112 13 2.68964 10.7676 2.68964 8C2.68964 5.23242 4.69112 3 7.1724 3ZM6.72412 4V8.5H9.86205V7.5H7.62068V4H6.72412Z" fill="black" fill-opacity="0.64"/>
</svg>
