<svg width="64" height="64" viewBox="0 0 64 64" fill="none" xmlns="http://www.w3.org/2000/svg">
<path d="M55.9953 0H8.00468C3.58382 0 0 3.75157 0 8.37937V55.6206C0 60.2484 3.58382 64 8.00468 64H55.9953C60.4162 64 64 60.2484 64 55.6206V8.37937C64 3.75157 60.4162 0 55.9953 0Z" fill="#EAEAEA"/>
<path d="M32.7357 46.168C30.7757 46.168 28.9557 45.874 27.2757 45.286C25.6237 44.67 24.3357 43.9 23.4117 42.976C22.9917 42.528 22.8097 42.024 22.8657 41.464C22.9497 40.876 23.2297 40.4 23.7057 40.036C24.2657 39.588 24.8117 39.406 25.3437 39.49C25.9037 39.546 26.3797 39.784 26.7717 40.204C27.2477 40.736 28.0037 41.24 29.0397 41.716C30.1037 42.164 31.2797 42.388 32.5677 42.388C34.1917 42.388 35.4237 42.122 36.2637 41.59C37.1317 41.058 37.5797 40.372 37.6077 39.532C37.6357 38.692 37.2297 37.964 36.3897 37.348C35.5777 36.732 34.0797 36.228 31.8957 35.836C29.0677 35.276 27.0097 34.436 25.7217 33.316C24.4617 32.196 23.8317 30.824 23.8317 29.2C23.8317 27.772 24.2517 26.596 25.0917 25.672C25.9317 24.72 27.0097 24.02 28.3257 23.572C29.6417 23.096 31.0137 22.858 32.4417 22.858C34.2897 22.858 35.9277 23.152 37.3557 23.74C38.7837 24.328 39.9177 25.14 40.7577 26.176C41.1497 26.624 41.3317 27.1 41.3037 27.604C41.2757 28.08 41.0377 28.486 40.5897 28.822C40.1417 29.13 39.6097 29.228 38.9937 29.116C38.3777 29.004 37.8597 28.752 37.4397 28.36C36.7397 27.688 35.9837 27.226 35.1717 26.974C34.3597 26.722 33.4217 26.596 32.3577 26.596C31.1257 26.596 30.0757 26.806 29.2077 27.226C28.3677 27.646 27.9477 28.262 27.9477 29.074C27.9477 29.578 28.0737 30.04 28.3257 30.46C28.6057 30.852 29.1377 31.216 29.9217 31.552C30.7057 31.86 31.8537 32.168 33.3657 32.476C35.4657 32.896 37.1177 33.428 38.3217 34.072C39.5537 34.716 40.4357 35.472 40.9677 36.34C41.4997 37.18 41.7657 38.16 41.7657 39.28C41.7657 40.568 41.4157 41.73 40.7157 42.766C40.0437 43.802 39.0357 44.628 37.6917 45.244C36.3757 45.86 34.7237 46.168 32.7357 46.168Z" fill="#222222"/>
<path d="M22 7.92851L25.7333 12.0266L32 6L38 12.0266L42 7.92851V15.9596C37.4281 18.6233 27.4497 18.7364 22 15.9596C22 15.9596 22 13.2826 22 7.92851Z" fill="#9932CC"/>
</svg>
